<svg xmlns="http://www.w3.org/2000/svg" viewBox="0 0 220 220" role="img" aria-labelledby="title desc">
  <title id="title">Baby clothes illustration</title>
  <desc id="desc">A baby onesie and shorts hanging on a line.</desc>
  <defs>
    <linearGradient id="g1" x1="0" y1="0" x2="1" y2="1">
      <stop offset="0%" stop-color="#f7e8d4"/>
      <stop offset="100%" stop-color="#e8c9a4"/>
    </linearGradient>
    <linearGradient id="g2" x1="0" y1="0" x2="0" y2="1">
      <stop offset="0%" stop-color="#d6b38e"/>
      <stop offset="100%" stop-color="#c09368"/>
    </linearGradient>
  </defs>

  <rect x="16" y="18" width="188" height="6" rx="3" fill="#a88762"/>

  <g transform="translate(24,30)">
    <line x1="16" y1="0" x2="16" y2="22" stroke="#9e7a52" stroke-width="3"/>
    <path d="M2 24h28v22c0 6-5 11-11 11h-6c-6 0-11-5-11-11z" fill="url(#g2)"/>
    <rect x="9" y="36" width="14" height="6" rx="3" fill="#8f6a45"/>
  </g>

  <g transform="translate(70,28)">
    <line x1="38" y1="0" x2="38" y2="16" stroke="#9e7a52" stroke-width="3"/>
    <path d="M38 18c-10 0-14 6-20 6-4 0-8-2-12-6l-4 8c5 4 8 8 8 13v34c0 7 6 13 13 13h30c7 0 13-6 13-13V39c0-5 3-9 8-13l-4-8c-4 4-8 6-12 6-6 0-10-6-20-6z" fill="url(#g1)"/>
    <circle cx="38" cy="48" r="6" fill="#d1a980"/>
  </g>

  <g transform="translate(154,42)">
    <line x1="12" y1="0" x2="12" y2="12" stroke="#9e7a52" stroke-width="3"/>
    <circle cx="12" cy="20" r="8" fill="#d7b084"/>
    <circle cx="8" cy="18" r="1.8" fill="#6f4d2f"/>
    <circle cx="16" cy="18" r="1.8" fill="#6f4d2f"/>
    <path d="M8 23c2 2 6 2 8 0" stroke="#6f4d2f" stroke-width="1.8" fill="none" stroke-linecap="round"/>
  </g>
</svg>
