<svg xmlns="http://www.w3.org/2000/svg" viewBox="0 0 240 240" role="img" aria-labelledby="title desc">
  <title id="title">Shri Ganesh Ji</title>
  <desc id="desc">Decorative Lord Ganesha symbol for invitation.</desc>
  <defs>
    <linearGradient id="gold" x1="0" y1="0" x2="1" y2="1">
      <stop offset="0%" stop-color="#f8ddb0"/>
      <stop offset="55%" stop-color="#e5b878"/>
      <stop offset="100%" stop-color="#c98b4c"/>
    </linearGradient>
    <radialGradient id="bg" cx="50%" cy="45%" r="70%">
      <stop offset="0%" stop-color="#fff6e8"/>
      <stop offset="100%" stop-color="#f1dec2"/>
    </radialGradient>
  </defs>

  <circle cx="120" cy="120" r="108" fill="url(#bg)"/>
  <circle cx="120" cy="120" r="106" fill="none" stroke="#b97a3f" stroke-width="3"/>

  <g fill="none" stroke="url(#gold)" stroke-linecap="round" stroke-linejoin="round">
    <path d="M120 48c-11 0-21 8-23 20 8-4 16-4 23 0 7-4 15-4 23 0-2-12-12-20-23-20z" stroke-width="9"/>
    <path d="M82 94c2-20 19-36 38-36s36 16 38 36" stroke-width="8"/>
    <path d="M86 116c0-20 15-36 34-36" stroke-width="8"/>
    <path d="M154 116c0-20-15-36-34-36" stroke-width="8"/>

    <path d="M101 112c0 8 6 14 14 14" stroke-width="7"/>
    <path d="M139 112c0 8-6 14-14 14" stroke-width="7"/>

    <path d="M120 122c-13 0-24 11-24 24 0 13 11 24 24 24" stroke-width="9"/>
    <path d="M120 122c13 0 24 11 24 24 0 13-11 24-24 24" stroke-width="9"/>

    <path d="M120 128v46c0 13-11 24-24 24" stroke-width="10"/>
    <path d="M120 138c15 0 26 11 26 24s-11 24-26 24" stroke-width="10"/>

    <path d="M95 176c6 7 14 11 25 11 11 0 19-4 25-11" stroke-width="7"/>

    <path d="M72 132c-12 7-18 19-18 33 0 11 4 21 12 29" stroke-width="7"/>
    <path d="M168 132c12 7 18 19 18 33 0 11-4 21-12 29" stroke-width="7"/>
  </g>

  <g fill="#9f2d2a">
    <circle cx="108" cy="108" r="4"/>
    <circle cx="132" cy="108" r="4"/>
    <circle cx="120" cy="81" r="5"/>
  </g>
</svg>
